<?xml version="1.0" encoding="utf-8"?>
<!-- Generator: Adobe Illustrator 23.0.1, SVG Export Plug-In . SVG Version: 6.00 Build 0)  -->
<svg version="1.1" id="レイヤー_1" xmlns="http://www.w3.org/2000/svg" xmlns:xlink="http://www.w3.org/1999/xlink" x="0px"
	 y="0px" viewBox="0 0 245 65" style="enable-background:new 0 0 245 65;" xml:space="preserve">
<style type="text/css">
	.st0{fill:#24387C;}
	.st1{fill:none;stroke:#24387C;stroke-width:0.9;stroke-miterlimit:10;}
</style>
<g>
	<g>
		<path class="st0" d="M16.5,6.9c2.3-0.1,4.3,1.5,3.2,3.6c-3.6,6.9-7.8,13-16.1,16.3c-2.5,1-3.8-1.9-1.3-2.8
			c6.6-2.3,11.6-8.2,13.7-13.3c0.2-0.6,0-1.1-0.7-1.1c-1.2,0-3.4,0.2-4.8,0.4c-2,2.7-4.6,5.8-6.7,7.2c-2.1,1.4-3.8-1.3-1.7-2.5
			c2.5-1.5,6.2-6.5,6.5-6.9c0.3-0.4,0.8-0.7,1.3-0.7C10.6,7.1,15.3,7,16.5,6.9z M18.8,5.6c-1.5-0.6-0.3-2.4,1-1.9
			c1.1,0.4,2.1,1,2.9,1.8c1.2,1.3-0.6,3.1-1.6,1.9C20.5,6.6,19.7,6,18.8,5.6L18.8,5.6z M21.5,3c-1.5-0.6-0.4-2.4,1-1.9
			c1.1,0.4,2.1,1,3,1.7C26.7,4,25,5.8,24,4.7C23.2,4,22.4,3.5,21.5,3L21.5,3z"/>
		<path class="st0" d="M57.1,16.1c-0.8,0-1.4-0.5-1.4-1.3c0,0,0-0.1,0-0.1c0-0.8,0.5-1.5,1.3-1.5c0,0,0.1,0,0.1,0H74
			c0.8,0.1,1.4,0.8,1.4,1.6c-0.1,0.7-0.6,1.3-1.4,1.4L57.1,16.1z"/>
		<path class="st0" d="M84.1,20.1c-0.1,1.5,0.6,2.2,2.4,2.4c1.8,0.2,6.6-0.1,8.7-0.8c2.3-0.8,3.6,2.4,0.6,3.2
			c-2.7,0.7-7.2,0.8-10.4,0.4c-2.6-0.3-4.2-2-4.2-4.5c0-3,0.2-9.6,0.2-13.2c0-2.1,3.1-1.7,3,0.1c0,1.6-0.1,3.8-0.1,6.1
			c3.2-0.7,6.3-1.6,9.4-2.8c2.2-1,3.7,2.1,1.1,3c-2.8,1-7.2,2.3-10.6,2.7C84.2,18.1,84.2,19.3,84.1,20.1z M94.9,8.9
			c-1.5-0.6-0.3-2.4,1-1.9c1.1,0.4,2.1,1,3,1.8c1.2,1.3-0.6,3.1-1.6,1.9C96.6,10,95.8,9.4,94.9,8.9L94.9,8.9z M97.6,6.3
			c-1.5-0.6-0.4-2.4,1-1.9c1.1,0.4,2.1,1,3,1.7c1.2,1.2-0.5,3.1-1.5,1.9C99.3,7.3,98.5,6.8,97.6,6.3z"/>
		<path class="st0" d="M110.2,25.4c-2.2,0.8-3.2-2.1-1-2.9c5.4-1.9,10.1-6.6,12.5-11.1c0.3-0.5,0.1-1-0.5-1c-1.9,0-6,0.1-8.6,0.2
			c-1.8,0.1-1.9-2.8,0-2.9c2.2-0.1,6.6-0.1,9.6-0.1c2.7,0,4.2,1.7,3,3.7c-1,1.8-2.1,3.5-3.3,5.1c2.5,1.5,6.3,4,7.6,5.9
			c1.2,1.7-1,4-2.4,2.2c-2-2.3-4.4-4.4-7-6C117.5,21.6,114.1,24,110.2,25.4z"/>
		<path class="st0" d="M151,19.5c0.1,0.4,0.1,0.8,0.1,1.2c0,2.4-1.1,6.1-5.8,6.1c-2.1,0-3.2-0.6-3.2-1.6c0-0.7,0.5-1.2,1.2-1.3
			c0,0,0,0,0,0c0.1,0,0.3,0,0.4,0.1c0.6,0.2,1.2,0.3,1.8,0.3c3,0,3-3.6,3-3.8c0-0.3,0-0.6-0.1-0.9l-11.4,0.1c-0.6,0-1.2-0.4-1.2-1.1
			c0,0,0-0.1,0-0.1c0-0.7,0.5-1.2,1.1-1.2c0,0,0,0,0.1,0l9.9,0.1c-0.3-0.2-0.7-0.4-1.1-0.6c-0.6-0.2-0.8-0.5-0.8-0.9
			c0.1-0.7,0.7-1.2,1.4-1.1c0.6,0,1.1,0.2,1.6,0.5c0.7-0.5,2.1-1.4,2.1-1.8c0-0.1-0.1-0.2-0.3-0.2c-0.3,0-0.8,0-1.4,0
			c-1.7,0-4.3,0.1-6.2,0.1h-0.1c-0.6,0-1.2-0.4-1.2-1c0,0,0-0.1,0-0.1c0-0.6,0.6-1.1,1.2-1.1c0,0,0,0,0,0c1.2-0.1,2.6-0.1,4-0.1
			c2,0,3.9,0,5.2,0.1c1.5,0,2.2,0.8,2.2,1.6c0,1.3-1.4,2.4-3.8,3.9c0.1,0.2,0.3,0.4,0.4,0.6l8-0.1c0.6,0,1.2,0.5,1.2,1.2
			c0,0,0,0.1,0,0.1c0,0.6-0.4,1.1-1.1,1.2c0,0-0.1,0-0.1,0L151,19.5z M155.4,11c0-1.1-0.6-1.3-1.7-1.3c-2.1,0-4.6-0.1-6.9-0.1
			c-1.9,0-3.8,0-5.4,0.1c-1.5,0-1.7,0.4-1.8,1.3v1.6c0,0.7-0.6,1.2-1.3,1.2c0,0,0,0,0,0c-0.7,0-1.2-0.5-1.3-1.2c0,0,0,0,0,0
			c0-0.3,0-0.7,0-1.2c0-0.4,0-0.9,0-1.3c0.1-1.3,1-2.5,3.1-2.6l2.3,0c-0.1-0.1-0.3-0.2-0.3-0.4c-0.6-1-1.2-1.3-1.9-1.9
			c-0.2-0.2-0.3-0.4-0.3-0.7c0.1-0.7,0.7-1.2,1.4-1.2c1,0,3.1,2,3.1,3c0,0.5-0.3,1-0.8,1.2c2.4,0,4.7,0,7.1,0
			c0.8-1.1,1.5-2.3,1.9-3.5c0.2-0.5,0.7-0.9,1.2-0.9c0.8,0,1.4,0.5,1.5,1.3c0,0.5-0.9,1.8-2,3.1c0.6,0,1.3,0,1.9,0
			c1.6,0,3.1,0.9,3.1,2.5c0,0.4,0,1,0,1.4c0,0.4,0,0.7,0,1c-0.1,0.7-0.7,1.2-1.4,1.2c-0.7,0-1.3-0.4-1.3-1.1L155.4,11L155.4,11z
			 M147.8,7.3c-0.4,0-0.8-0.3-0.9-0.6c-0.4-0.9-0.9-1.6-1.6-2.3c-0.1-0.2-0.2-0.4-0.2-0.6c0-0.6,0.7-1,1.4-1c1.4,0,2.9,2.6,2.9,3.2
			C149.3,6.7,148.6,7.3,147.8,7.3z"/>
		<path class="st0" d="M165.4,19.5c-0.2-4.8,2.4-8.4,3.4-10.2c0.1-0.2,0.2-0.4,0-0.3c-0.7,0.1-1.3,0.2-2,0.2c-2.1,0.1-2-2.8,0.1-2.8
			c2.1,0.1,3.9-0.3,5.1-1c1.7-1,3.1,1.5,1.2,2.5c-1.9,1-5.9,6.3-5.3,11.6c0.5,4.1,4.1,4.4,6.9,1.8c3.4-3.2,3.3-9.3,2.5-11
			c-0.2-0.3-0.4-1-0.7-1.4c-1.1-1.9,1.6-3.3,2.7-1.1c1,2,2.4,3.5,5.2,5c1.9,1,0.2,3.6-1.6,2.5c-1.1-0.7-2.1-1.6-2.9-2.7
			c-0.2-0.2-0.2-0.3-0.2,0c0.6,2.4,0,7.5-3.5,10.9C172.6,27.3,165.8,26.8,165.4,19.5z M180.4,6.9c-1.4-0.6-0.3-2.2,1-1.7
			c1,0.4,1.9,0.9,2.7,1.6c1,1.1-0.5,2.8-1.4,1.7C181.9,7.9,181.2,7.4,180.4,6.9z M182.8,4.6c-1.4-0.5-0.4-2.1,0.9-1.7
			c1,0.3,1.9,0.9,2.7,1.5c1.1,1.1-0.5,2.8-1.4,1.7C184.3,5.5,183.6,5,182.8,4.6z"/>
		<path class="st0" d="M212.7,10.7c-0.3,3.3-1.3,6.5-2.9,9.4c1.4,1.6,3.1,2.8,5,3.6c0.5,0.2,0.8,0.6,0.8,1.2c0,0.8-0.6,1.5-1.4,1.5
			c-0.9,0-3.9-1.9-5.8-4.3c-2.1,2.5-5.4,4.5-6.4,4.5c-0.7,0-1.3-0.6-1.3-1.4c0-0.5,0.3-1,0.8-1.1c2.2-0.8,4.1-2.2,5.5-4
			c-1.2-1.9-2-4-2.5-6.3l0,0c-0.3,0.4-0.7,0.6-1.2,0.6c-0.4,0-0.7-0.1-1-0.4v0.4c-0.2,6-0.6,11.3-4.5,11.3c-0.5,0-2.4-0.1-2.4-1.6
			c-0.1-0.6,0.4-1.1,0.9-1.2c0,0,0,0,0.1,0c0.2,0,0.3,0,0.5,0.1c0.2,0.1,0.5,0.2,0.8,0.2c0.6,0,1.1-0.4,1.3-1.2
			c0.7-2.2,0.9-4.9,0.9-7.2c0-0.8-0.4-0.9-1.5-0.9c-0.3,0-0.6,0-0.9,0c-0.5,4.4-1.4,8.8-3.8,11.7c-0.3,0.3-0.6,0.5-1,0.5
			c-0.7,0-1.3-0.5-1.4-1.2c0-0.2,0.1-0.5,0.3-0.7c3-3.7,3.6-9.8,3.8-15.1l-2.1,0.1h0c-0.7,0-1.2-0.5-1.2-1.2c0-0.7,0.5-1.2,1.2-1.2
			l0,0l0,0l3,0.1l0-3c0-0.7,0.7-1.3,1.4-1.3c0.7,0,1.2,0.6,1.2,1.3l0,3l3.2-0.1h0c0.6,0,1.1,0.5,1.2,1.1c0,0,0,0.1,0,0.1
			c0,0.6-0.4,1.2-1,1.2c0,0-0.1,0-0.1,0h0l-4.2-0.1c-0.1,0.9-0.1,1.7-0.2,2.7c0.6,0,1.2,0,1.7,0c1.3,0,2.2,0.1,2.6,1.2
			c0.1-0.2,0.1-0.3,0.2-0.5c1.6-2.3,2.9-6.1,3.3-8.6c0.1-0.6,0.6-1,1.2-1c0.7-0.1,1.3,0.5,1.3,1.1c0,0,0,0,0,0c0,1-1,3.8-1.2,4.2
			l7.3,0c0.6,0,1.1,0.4,1.1,1c0,0,0,0.1,0,0.1c0,0.6-0.4,1.1-1,1.1c0,0-0.1,0-0.1,0H212.7z M205.6,10.7L205.6,10.7
			c0.2,2.6,1,5.1,2.2,7.3c1.1-2.3,1.8-4.7,2-7.3L205.6,10.7z"/>
		<path class="st0" d="M228,19.6v3.3c1.1,0.4,2.6,1,6.8,1c2.7,0,5.6-0.2,8.1-0.4h0.1c0.6,0,1.2,0.5,1.2,1.2c0,0,0,0,0,0.1
			c0,0.7-0.6,1.3-1.3,1.3c-1.9,0.2-4,0.3-6,0.3c-5.7,0-10.5-0.5-13.1-4.1c-0.9,3.5-1.7,4.2-2.6,4.2c-0.6,0-1.3-0.4-1.3-1
			c0-0.2,0.1-0.5,0.2-0.6c1.3-1.8,2-4.5,2-7v-0.4c0-0.6,0.5-1,1-1c0,0,0,0,0.1,0c0.6,0,1.1,0.4,1.2,1v0c0,0.5-0.1,1.7-0.2,1.9
			c0.3,0.8,0.8,1.6,1.5,2.2v-5.9h-3.9c-0.6,0-1.1-0.4-1.1-0.9c0-0.6,0.4-1.1,0.9-1.1c0,0,0.1,0,0.1,0h9.6c0.6,0,1,0.5,0.9,1.1
			c0,0.5-0.4,0.9-0.9,0.9H228v1.9h2.6c0.6,0,1,0.5,0.9,1.1c0,0.5-0.4,0.9-0.9,0.9L228,19.6z M229.1,12.4c-0.8,0.1-1.7,0.1-2.5,0.1
			c-4,0-4.9-0.1-4.9-3.4c0-1,0.1-1.9,0.1-2.8c0-1.3,1.1-2.4,2.4-2.4c0.8,0,1.6-0.1,2.4-0.1c0.8,0,1.6,0,2.4,0.1
			c1.2,0.1,2.2,1,2.4,2.2c0.1,0.9,0.1,1.8,0.1,2.7c0,0.5,0,0.9,0,1.3C231.4,11.5,230.5,12.3,229.1,12.4z M229.3,9.1h-5.5v0.6
			c0,0.7,0.4,0.9,2.7,0.9c2.4,0,2.8-0.1,2.8-1L229.3,9.1z M229.2,6.9c-0.1-1.1-0.3-1.1-2.6-1.1c-2.5,0-2.7,0.1-2.8,1.1v0.3h5.4
			L229.2,6.9z M238.8,6.4c-0.1,0.5-0.3,1-0.4,1.3c2.4,0,3.8,0.2,3.9,2c0.1,1.1,0.1,2.3,0.1,3.5c0,1.2,0,2.4-0.1,3.4
			c-0.1,1-1,2-2.5,2.1c1,0.7,2.1,1.2,3.3,1.6c0.5,0.1,0.9,0.6,0.9,1.1c0,0.7-0.5,1.2-1.2,1.3c0,0,0,0,0,0c-1.1,0-3.4-1.6-4.4-2.3
			c-0.2-0.2-0.4-0.5-0.4-0.7c0-0.4,0.2-0.7,0.5-1h-2.2c0.3,0.2,0.4,0.5,0.4,0.8c0,1.3-4.4,3.5-5.5,3.5c-0.6,0-1.2-0.5-1.2-1.1
			c0,0,0,0,0,0c0-0.6,0.4-1.1,1-1.2c1.4-0.4,2.8-1.1,3.9-2.1c-1.2-0.2-1.8-1-1.9-2c0-1-0.1-2.2-0.1-3.3c0-1.2,0-2.4,0.1-3.5
			c0-1,0.7-1.9,2.6-2l0.3,0c0.1-0.5,0.2-0.8,0.3-1.4h-3.1c-0.6,0.1-1.1-0.4-1.2-1c0,0,0-0.1,0-0.1c0-0.6,0.5-1,1-1.1
			c0,0,0.1,0,0.1,0h9.4c0.6-0.1,1.1,0.3,1.2,0.9c0,0,0,0.1,0,0.1c0,0.6-0.5,1.1-1.1,1.1c0,0-0.1,0-0.1,0L238.8,6.4z M240.1,12.4
			h-4.8v1.5h4.8V12.4z M240.1,10.2c0-0.8-0.4-0.9-2.3-0.9c-1.9,0-2.3,0.1-2.4,0.9c0,0.2,0,0.4,0,0.6h4.7V10.2z M235.4,15.5l0,0.7
			c0,0.5,0.1,0.9,2.3,0.9c1.7,0,2.3,0,2.3-0.9c0-0.2,0-0.5,0-0.7L235.4,15.5z"/>
		<polygon class="st0" points="43.3,16.2 39.5,19 39.5,13.3 		"/>
		<path class="st0" d="M45.2,24.2c-3.7,0.1-5.8,0.1-8.6,0c-3-0.1-4.6-1.7-4.6-4.2c-0.1-2.9-0.1-5.1,0-7.7c0.1-2.2,1.4-4,4.6-4.1
			c3.3-0.1,6.1-0.1,9,0c2.5,0.1,4.2,1.9,4.2,3.8c0.1,2.7,0.1,5.4,0,7.9C49.6,22.6,48,24.1,45.2,24.2z M46.6,13.1
			c-0.1-1.3-0.7-2-2.2-2.1c-2.6-0.1-4.9-0.1-7.2,0c-1.7,0.1-2.2,0.9-2.2,2.1c-0.1,2.1-0.1,4.2,0,6.3c0.1,1.3,0.7,1.9,2.3,1.9
			c2.7,0.1,4.5,0.1,7.2,0c1.3-0.1,2.1-0.7,2.1-2C46.6,17.4,46.6,15.1,46.6,13.1z"/>
	</g>
	<g>
		<path class="st0" d="M10.5,60.5c1,0.2,2.4,0.2,4.1,0.2c0.9,0,1.9,0,3-0.1c-0.1,0.3-0.2,0.5-0.3,0.8c-0.1,0.4-0.1,0.4-0.4,0.4
			c-0.6,0-1.1,0-1.7,0c-7.1,0-8.3-1.2-9.5-3.5c-0.6,1.5-1.5,2.6-2.6,3.6c-0.1,0.1-0.2,0.2-0.3,0.2c-0.1,0-0.1-0.1-0.3-0.2
			c-0.2-0.2-0.4-0.4-0.6-0.5c1.9-1.4,3.2-3.3,3.5-6.3c0.1-0.4,0.1-0.7,0.1-1c0.4,0.1,0.7,0.1,1,0.2c0.2,0.1,0.3,0.1,0.3,0.2
			c0,0.1-0.1,0.2-0.1,0.3c-0.1,0.1-0.1,0.3-0.2,0.4c-0.1,0.7-0.2,1.3-0.4,1.8c0.7,1.6,1.4,2.6,3.3,3.1v-7.6H7.5c-1.8,0-2.4,0-2.5,0
			c-0.1,0-0.2,0-0.2-0.1v-0.8c0-0.1,0-0.1,0.2-0.1c0.1,0,0.7,0,2.5,0h5c1.8,0,2.4,0,2.5,0c0.1,0,0.1,0,0.1,0.1v0.8
			c0,0.1,0,0.1-0.1,0.1c-0.1,0-0.7,0-2.5,0h-2v3h2.7c1.3,0,1.7,0,1.8,0c0.1,0,0.1,0,0.1,0.1v0.8c0,0.1,0,0.1-0.1,0.1
			c-0.1,0-0.5,0-1.8,0h-2.7V60.5z M17.2,49.9c0,1.5,0,1.7,0,1.9c0,0.1,0,0.1-0.1,0.1h-0.8c-0.1,0-0.1,0-0.1-0.1v-2.5H3.9v2.5
			c0,0.1,0,0.1-0.1,0.1H2.9c-0.1,0-0.1,0-0.1-0.1c0-0.1,0-0.3,0-1.9v-0.6c0-0.6,0-0.8,0-1s0-0.1,0.1-0.1c0.1,0,0.7,0,2.5,0h3.9v-0.3
			c0-0.9,0-1.4-0.1-1.8c0.5,0,0.8,0,1.2,0.1c0.1,0,0.2,0.1,0.2,0.1c0,0.1-0.1,0.2-0.1,0.3c-0.1,0.2-0.1,0.4-0.1,1.3v0.3h4.3
			c1.8,0,2.4,0,2.5,0c0.1,0,0.1,0,0.1,0.1s0,0.4,0,0.8V49.9z"/>
		<path class="st0" d="M30.1,50.9c0.2,0,0.2,0,0.3-0.1c0.1,0,0.1,0,0.2,0c0.1,0,0.2,0.1,0.5,0.3c0.2,0.2,0.3,0.3,0.3,0.4
			c0,0.1-0.1,0.1-0.1,0.2c-0.1,0.1-0.2,0.2-0.4,0.4c-0.5,0.8-0.9,1.5-1.5,2.1c1,0.7,2.1,1.3,3.3,1.6c-0.2,0.2-0.3,0.4-0.4,0.6
			c-0.1,0.3-0.2,0.3-0.5,0.2c-1.2-0.5-2.2-1.1-3-1.8c-0.6,0.5-1.2,1-2.1,1.5h2.7c1.2,0,1.5,0,1.6,0c0.1,0,0.1,0,0.1,0.1
			c0,0.1,0,0.5,0,1.2v1.1c0,1.9,0,2.2,0,2.3c0,0.1,0,0.1-0.1,0.1h-0.7c-0.1,0-0.1,0-0.1-0.1v-0.4h-3.1v1c0,0.1,0,0.2-0.1,0.2h-0.7
			c-0.1,0-0.1,0-0.1-0.2c0-0.1,0-0.4,0-2.6v-1.1c0-0.7,0-1.1,0-1.3c-0.3,0.2-0.6,0.3-1,0.5c-0.1,0.1-0.2,0.1-0.3,0.1
			c-0.1,0-0.1-0.1-0.2-0.3c-0.1-0.2-0.2-0.4-0.4-0.5c1.7-0.7,3-1.4,3.9-2.3c-0.5-0.5-0.9-1-1.3-1.7c-0.4,0.5-0.8,0.9-1.3,1.3
			c-0.1,0.1-0.2,0.2-0.3,0.2c-0.1,0-0.1-0.1-0.2-0.2c-0.1-0.2-0.3-0.4-0.5-0.5c1.4-1,2.3-2.2,2.7-3.1c0.1-0.3,0.2-0.5,0.3-0.8
			c0.4,0.1,0.7,0.2,0.9,0.3c0.1,0,0.2,0.1,0.2,0.2c0,0.1-0.1,0.1-0.1,0.2c-0.1,0.1-0.2,0.3-0.3,0.4L28,50.9H30.1z M32.2,49.4
			c0,1.1,0,1.3,0,1.4c0,0.1,0,0.1-0.2,0.1h-0.7c-0.1,0-0.1,0-0.1-0.1v-1.7H26v1.7c0,0.1,0,0.1-0.1,0.1h-0.7C25,51,25,51,25,50.8
			c0-0.1,0-0.3,0-1.4V49c0-0.4,0-0.6,0-0.7c0-0.1,0-0.1,0.1-0.1c0.1,0,0.6,0,2.1,0H28v-0.5c0-0.7,0-1.1-0.1-1.6
			c0.4,0,0.8,0.1,1.1,0.1c0.1,0,0.2,0.1,0.2,0.2c0,0.1-0.1,0.2-0.1,0.3c-0.1,0.2-0.1,0.4-0.1,1v0.5H30c1.5,0,2,0,2.1,0
			c0.1,0,0.2,0,0.2,0.1c0,0.1,0,0.3,0,0.6V49.4z M30.2,57.3h-3.1V60h3.1V57.3z M27.5,51.7l-0.2,0.2c0.4,0.7,0.9,1.3,1.4,1.8
			c0.6-0.6,1-1.3,1.4-2H27.5z M35.3,60.2c-0.1,0.1-0.3,0.2-0.4,0.3c-0.9,0.7-1.8,1.4-3.1,1.9c-0.1,0.1-0.2,0.1-0.3,0.1
			c-0.1,0-0.1-0.1-0.3-0.3s-0.3-0.4-0.5-0.5c1.4-0.5,2.3-1,3.2-1.8c0.2-0.1,0.4-0.4,0.5-0.6c0.3,0.2,0.6,0.3,0.8,0.5
			c0.1,0.1,0.1,0.1,0.1,0.2S35.4,60.2,35.3,60.2z M40.7,47.9c0,0.1,0,0.1-0.1,0.1c-0.1,0-0.6,0-2.3,0h-1.4c-0.2,0.7-0.5,1.3-0.7,1.8
			h1.4c1.4,0,1.9,0,2,0c0.1,0,0.1,0,0.1,0.1c0,0.1,0,0.6,0,2.1v4.6c0,1.5,0,2,0,2.1c0,0.1,0,0.1-0.1,0.1c-0.1,0-0.6,0-2,0h-2.2
			c-1.4,0-1.9,0-2,0c-0.1,0-0.1,0-0.1-0.1c0-0.1,0-0.6,0-2.1v-4.6c0-1.5,0-2.1,0-2.1c0-0.1,0-0.1,0.1-0.1c0.1,0,0.5,0,1.7,0
			c0.3-0.6,0.5-1.2,0.7-1.8h-0.8c-1.7,0-2.2,0-2.3,0c-0.1,0-0.1,0-0.1-0.1v-0.7c0-0.1,0-0.1,0.1-0.1c0.1,0,0.6,0,2.3,0h3.3
			c1.7,0,2.2,0,2.3,0c0.1,0,0.1,0,0.1,0.1V47.9z M38.6,50.7h-4.4v1.8h4.4V50.7z M38.6,53.4h-4.4v1.8h4.4V53.4z M38.6,56h-4.4V58h4.4
			V56z M37.5,59.4c0.1-0.1,0.2-0.1,0.3,0c1,0.9,2.2,1.7,3.2,2c-0.2,0.1-0.3,0.3-0.5,0.6c-0.1,0.2-0.1,0.3-0.2,0.3
			c-0.1,0-0.2,0-0.3-0.1c-1.2-0.6-2.1-1.3-3-2.1c-0.1-0.1-0.1-0.1,0.1-0.3L37.5,59.4z"/>
		<path class="st0" d="M56.8,53c0,0.1,0,0.2-0.1,0.2c-0.1,0-0.7,0-2.4,0h-1.5v1.9h1.1c1.6,0,2.1,0,2.2,0c0.1,0,0.1,0,0.1,0.1
			c0,0.1,0,0.6,0,1.8v0.6c0,1,0,1.5,0,2c0,0.5-0.1,0.8-0.4,1.1c-0.3,0.2-0.6,0.3-1.5,0.3c-0.3,0-0.3,0-0.4-0.3
			c-0.1-0.3-0.2-0.5-0.3-0.7c0.4,0,0.6,0.1,1,0.1c0.4,0,0.5-0.1,0.5-0.5V56h-2.4v2.9c0,2.3,0,3.3,0,3.3c0,0.1,0,0.1-0.1,0.1h-0.8
			c-0.1,0-0.1,0-0.1-0.1c0-0.1,0-1.1,0-3.3V56h-2.4v2.9c0,1.2,0,1.8,0,1.9c0,0.1,0,0.1-0.1,0.1h-0.8c-0.1,0-0.1,0-0.1-0.1
			c0-0.1,0-0.6,0-1.9v-2c0-1.2,0-1.5,0-1.7c0-0.1,0-0.1,0.1-0.1c0.1,0,0.6,0,2.2,0h1.1v-1.9h-1.8c-1.7,0-2.3,0-2.4,0
			c-0.1,0-0.1,0-0.1-0.2v-0.7c0-0.1,0-0.1,0.1-0.1c0.1,0,0.7,0,2.4,0h1.8V50h-2.2c-0.2,0.5-0.5,1-0.8,1.5c-0.1,0.2-0.1,0.2-0.2,0.2
			c-0.1,0-0.1-0.1-0.2-0.1c-0.2-0.1-0.5-0.3-0.6-0.3c0.9-1.1,1.4-2.4,1.7-3.5c0-0.2,0.1-0.4,0.1-0.7c0.4,0.1,0.7,0.2,1,0.3
			c0.2,0.1,0.2,0.1,0.2,0.2s-0.1,0.1-0.1,0.2c-0.1,0.1-0.1,0.2-0.2,0.4c-0.1,0.3-0.2,0.6-0.3,0.9h1.8v-1c0-0.7,0-1.1-0.1-1.6
			c0.5,0,0.8,0.1,1.2,0.1c0.1,0,0.2,0.1,0.2,0.1c0,0.1,0,0.2-0.1,0.3c-0.1,0.2-0.1,0.5-0.1,1v1h1.1c1.4,0,1.9,0,2,0
			c0.1,0,0.1,0,0.1,0.1v0.7c0,0.1,0,0.1-0.1,0.1c-0.1,0-0.6,0-2,0h-1.1v2.1h1.5c1.7,0,2.3,0,2.4,0c0.1,0,0.1,0,0.1,0.1V53z
			 M57.9,50.4c0-1.2,0-1.8-0.1-2.4c0.4,0,0.8,0.1,1.2,0.1c0.1,0,0.2,0.1,0.2,0.1c0,0.1-0.1,0.2-0.1,0.3c-0.1,0.2-0.1,0.5-0.1,1.9
			v4.9c0,1.6,0,2.2,0,2.3c0,0.1,0,0.1-0.1,0.1H58c-0.1,0-0.1,0-0.1-0.1c0-0.1,0-0.8,0-2.3V50.4z M61.4,48.8c0-1.1,0-1.6-0.1-2.2
			c0.4,0,0.8,0.1,1.2,0.1c0.1,0,0.2,0.1,0.2,0.1c0,0.1-0.1,0.2-0.1,0.3c-0.1,0.2-0.1,0.5-0.1,1.6v8.8c0,1,0,2,0,2.7
			c0,0.8-0.1,1.2-0.5,1.5c-0.4,0.3-0.8,0.3-2.4,0.3c-0.3,0-0.3,0-0.4-0.4c-0.1-0.3-0.2-0.6-0.4-0.8c0.6,0.1,1,0.1,1.6,0.1
			c0.7,0,0.9-0.1,0.9-0.9V48.8z"/>
		<path class="st0" d="M78.7,50.4c0,0.1,0,0.1-0.1,0.1c-0.1,0-0.6,0-2.3,0H75v1.2h1c1.5,0,2,0,2.1,0c0.1,0,0.1,0,0.1,0.1
			c0,0.1,0,0.4,0,1.5V55c0,1,0,1.4,0,1.5c0,0.1,0,0.1-0.1,0.1c-0.1,0-0.5,0-2.1,0h-1v1.2h1c1.6,0,2.1,0,2.2,0c0.1,0,0.1,0,0.1,0.1
			v0.6c0,0.1,0,0.1-0.1,0.1c-0.1,0-0.6,0-2.2,0h-1v1.3c1.1-0.1,2.3-0.3,3.3-0.5c-0.1,0.2-0.1,0.4-0.1,0.5c0,0.4,0,0.4-0.4,0.4
			c-2.1,0.4-4.2,0.7-6.4,1c-0.4,0-0.6,0.1-0.7,0.1c-0.1,0-0.1,0.1-0.2,0.1c-0.1,0-0.2-0.1-0.2-0.2c-0.1-0.3-0.2-0.7-0.3-1
			c0.6,0,1.1,0,1.9-0.1c0.6-0.1,1.4-0.1,2.2-0.2v-1.4h-1.3c-1.6,0-2.1,0-2.2,0c-0.1,0-0.1,0-0.1-0.1v-0.6c0-0.1,0-0.1,0.1-0.1
			c0.1,0,0.6,0,2.2,0H74v-1.2h-0.9c-1.5,0-2,0-2.1,0c-0.1,0-0.1,0-0.1-0.1c0-0.1,0-0.5,0-1.5v-1.7c0-1,0-1.4,0-1.5
			c0-0.1,0-0.1,0.1-0.1c0.1,0,0.6,0,2.1,0H74v-1.2h-1.5c-1.6,0-2.2,0-2.3,0c-0.1,0-0.1,0-0.1-0.1v-0.7c0-0.1,0-0.1,0.1-0.1
			c0.1,0,0.6,0,2.3,0H74v-1.2c-0.9,0.1-1.8,0.2-2.8,0.3c-0.3,0-0.4,0-0.5-0.2c-0.1-0.3-0.3-0.5-0.4-0.6c2.6-0.2,4.4-0.5,6.2-0.9
			c0.3-0.1,0.6-0.2,0.8-0.3c0.3,0.2,0.5,0.4,0.7,0.6c0.1,0.1,0.1,0.2,0.1,0.3c0,0.1-0.1,0.2-0.3,0.2s-0.4,0.1-0.7,0.1
			c-0.8,0.2-1.5,0.4-2.3,0.5v1.4h1.3c1.7,0,2.2,0,2.3,0c0.1,0,0.1,0,0.1,0.1V50.4z M74,52.4h-2.2v1.3H74V52.4z M74,54.4h-2.2v1.4H74
			V54.4z M77.3,52.4H75v1.3h2.3V52.4z M77.3,54.4H75v1.4h2.3V54.4z M83.3,50.5c1.4,0,1.9,0,2,0c0.1,0,0.2,0,0.2,0.2
			c0,0.6,0,1.1,0,1.6c0,2.9-0.2,5.8-0.5,8c-0.2,1.3-0.8,1.8-1.9,1.8c-0.5,0-0.9,0-1.3,0c-0.3,0-0.3-0.1-0.3-0.3
			c0-0.3-0.1-0.6-0.3-0.9c0.6,0.1,1.2,0.2,1.8,0.2c0.6,0,0.9-0.3,1-1.2c0.3-1.9,0.5-5,0.5-8.3h-2.2c-0.1,1.8-0.3,3.6-0.6,5
			c-0.6,2.3-1.5,4.1-3.4,5.6c-0.1,0.1-0.2,0.2-0.3,0.2c-0.1,0-0.1-0.1-0.2-0.2c-0.2-0.2-0.5-0.4-0.7-0.5c2-1.3,3-3.1,3.7-5.5
			c0.3-1.2,0.5-2.9,0.6-4.7H81c-1.4,0-1.8,0-1.9,0c-0.1,0-0.2,0-0.2-0.1v-0.8c0-0.1,0-0.1,0.2-0.1c0.1,0,0.5,0,1.9,0h0.2
			c0-0.7,0-1.4,0-2c0-1.1,0-1.5-0.1-2.2c0.4,0,0.8,0.1,1.2,0.1c0.1,0,0.2,0.1,0.2,0.2c0,0.1,0,0.2-0.1,0.4c-0.1,0.2-0.1,0.7-0.1,1.7
			c0,0.6,0,1.3,0,1.9H83.3z"/>
		<path class="st0" d="M108.4,48c0,0.1,0,0.1-0.1,0.1c-0.1,0-0.7,0-2.4,0h-4.8v2.4h1.4c1.7,0,2.2,0,2.3,0c0.1,0,0.1,0,0.1,0.1
			c0,0.1,0,0.6,0,2v3.9c0,1.4,0,1.9,0,2c0,0.1,0,0.1-0.1,0.1c-0.1,0-0.7,0-2.3,0h-3.7c-1.6,0-2.2,0-2.3,0c-0.1,0-0.1,0-0.1-0.1
			c0-0.1,0-0.6,0-2v-3.9c0-1.4,0-1.9,0-2c0-0.1,0-0.1,0.1-0.1c0.1,0,0.7,0,2.3,0h1.3v-2.4h-4.6c-1.7,0-2.3,0-2.4,0
			c-0.1,0-0.1,0-0.1-0.1v-0.8c0-0.1,0-0.2,0.1-0.2c0.1,0,0.7,0,2.4,0h10.4c1.7,0,2.3,0,2.4,0c0.1,0,0.1,0,0.1,0.2V48z M106.9,52.6
			c0-0.9,0-1.6-0.1-2.2c0.6,0,0.9,0.1,1.2,0.1c0.1,0,0.2,0.1,0.2,0.2c0,0.1,0,0.2-0.1,0.3c-0.1,0.1-0.1,0.5-0.1,1.6v6.2
			c0,2.3,0,3.4,0,3.5c0,0.1,0,0.1-0.1,0.1H107c-0.1,0-0.1,0-0.1-0.1v-0.9H94.5v0.9c0,0.1,0,0.1-0.1,0.1h-0.8c-0.1,0-0.1,0-0.1-0.1
			c0-0.1,0-1.1,0-3.4v-6.2c0-1,0-1.7-0.1-2.2c0.5,0,0.7,0.1,1.1,0.1c0.2,0,0.3,0.1,0.3,0.2c0,0.1-0.1,0.2-0.1,0.3
			c-0.1,0.2-0.1,0.6-0.1,1.6v7.7h12.4V52.6z M100.1,51.4h-2.7v2.6h2.7V51.4z M100.1,54.8h-2.7v2.8h2.7V54.8z M103.9,51.4h-2.8v2.6
			h2.8V51.4z M103.9,54.8h-2.8v2.8h2.8V54.8z"/>
		<path class="st0" d="M131.2,57.2c0,0.1,0,0.1-0.1,0.1c-0.1,0-0.6,0-2.3,0H124v1.9c0,0.4,0,1.1,0,1.5c0,0.6-0.1,0.9-0.5,1.2
			c-0.4,0.2-0.8,0.3-2.5,0.3c-0.3,0-0.3,0-0.4-0.3c-0.1-0.3-0.2-0.6-0.4-0.8c0.6,0.1,1.1,0.1,1.9,0.1c0.5,0,0.8-0.1,0.8-0.7v-3.1
			h-4.9c-1.7,0-2.2,0-2.3,0c-0.1,0-0.1,0-0.1-0.1v-0.8c0-0.1,0-0.1,0.1-0.1c0.1,0,0.6,0,2.3,0h4.9c0-0.8,0-1.3-0.1-1.8
			c0.3,0.1,0.6,0.1,0.9,0.2c0.9-0.5,1.6-1,2.3-1.7h-4.8c-1.7,0-2.2,0-2.3,0c-0.1,0-0.1,0-0.1-0.1v-0.7c0-0.1,0-0.1,0.1-0.1
			c0.1,0,0.6,0,2.3,0h5c0.3,0,0.4,0,0.5,0c0.1,0,0.1,0,0.2,0c0.1,0,0.2,0.1,0.5,0.4c0.3,0.3,0.4,0.4,0.4,0.6c0,0.1-0.1,0.2-0.2,0.2
			c-0.2,0.1-0.3,0.1-0.8,0.5c-0.7,0.6-1.6,1.2-2.8,1.8c0,0.1,0,0.3,0,0.6v0.2h4.8c1.7,0,2.3,0,2.3,0c0.1,0,0.1,0,0.1,0.1V57.2z
			 M130.6,51.2c0,1.6,0,1.8,0,1.9c0,0.1,0,0.1-0.2,0.1h-0.8c-0.1,0-0.1,0-0.1-0.1v-2.7h-12.4v2.7c0,0.1,0,0.1-0.1,0.1h-0.8
			c-0.1,0-0.1,0-0.1-0.1c0-0.1,0-0.3,0-1.9v-0.6c0-0.6,0-0.9,0-1s0-0.1,0.1-0.1c0.1,0,0.7,0,2.5,0h7.5c0.5-0.8,0.8-1.4,1.2-2.2
			c0.1-0.2,0.2-0.5,0.2-0.8c0.4,0.1,0.8,0.2,1.1,0.4c0.1,0.1,0.2,0.1,0.2,0.2c0,0.1,0,0.1-0.1,0.2c-0.1,0.1-0.3,0.3-0.3,0.4
			c-0.3,0.6-0.6,1.2-1.1,1.8h0.8c1.8,0,2.4,0,2.5,0c0.1,0,0.2,0,0.2,0.1c0,0.1,0,0.4,0,0.9V51.2z M118.5,46.6c0.2-0.1,0.3-0.1,0.3,0
			c0.5,0.6,1,1.3,1.4,2c0.1,0.1,0.1,0.1-0.2,0.2l-0.5,0.2c-0.1,0.1-0.2,0.1-0.2,0.1c-0.1,0-0.1,0-0.1-0.1c-0.3-0.7-0.8-1.5-1.3-2
			c-0.1-0.1-0.1-0.1,0.2-0.2L118.5,46.6z M122.8,46.3c0.2-0.1,0.2-0.1,0.3,0c0.5,0.7,0.8,1.4,1.1,2.1c0.1,0.1,0,0.1-0.2,0.2
			l-0.5,0.2c-0.3,0.1-0.3,0.1-0.3-0.1c-0.3-0.9-0.6-1.5-1-2.1c-0.1-0.1,0-0.2,0.2-0.2L122.8,46.3z"/>
		<path class="st0" d="M143,51.7c-1,0.5-2.2,1.1-3.2,1.5c-0.4,0.2-0.5,0.3-0.6,0.4c-0.1,0.1-0.1,0.1-0.2,0.1s-0.1,0-0.2-0.1
			c-0.2-0.3-0.3-0.7-0.4-1c0.5-0.1,0.9-0.2,1.3-0.4c1-0.4,2.3-1,3.7-1.7c0,0.2,0,0.4,0,0.7C143.3,51.5,143.3,51.5,143,51.7z
			 M145.3,50.5c0,0.8,0,1.5,0,1.9c0,0.6-0.1,0.9-0.4,1.1c-0.3,0.2-0.6,0.3-2,0.3c-0.3,0-0.3,0-0.4-0.4c-0.1-0.3-0.2-0.5-0.3-0.7
			c0.5,0.1,0.8,0.1,1.2,0.1c0.7,0,0.8-0.2,0.8-0.6v-4.4h-3.7c-1.5,0-1.9,0-2,0c-0.1,0-0.1,0-0.1-0.2V47c0-0.1,0-0.1,0.1-0.1
			c0.1,0,0.6,0,2,0h2.6c1.5,0,2,0,2.1,0c0.1,0,0.1,0,0.1,0.1c0,0.1,0,0.4,0,1.3V50.5z M139.7,48.5c0.1-0.1,0.1-0.1,0.3-0.1
			c0.7,0.3,1.4,0.7,2.1,1.2c0.1,0.1,0.1,0.1,0,0.3l-0.3,0.4c-0.2,0.2-0.2,0.2-0.3,0.1c-0.6-0.5-1.3-1-2-1.3
			c-0.1-0.1-0.1-0.1,0.1-0.3L139.7,48.5z M151.4,59c0,2.7,0,3.2,0,3.3c0,0.1,0,0.1-0.1,0.1h-0.8c-0.1,0-0.1,0-0.1-0.1v-0.6h-8.4v0.7
			c0,0.1,0,0.1-0.1,0.1h-0.8c-0.1,0-0.1,0-0.1-0.1c0-0.1,0-0.5,0-3.3v-1.6c0-1.6,0-2.1,0-2.2c0-0.1,0-0.1,0.1-0.1c0.1,0,0.7,0,2.5,0
			h1.4l0.3-0.6c0.1-0.4,0.2-0.6,0.3-1c0.4,0.1,0.8,0.1,1.1,0.3c0.1,0.1,0.2,0.1,0.2,0.2c0,0.1-0.1,0.2-0.1,0.3
			c-0.1,0.1-0.2,0.2-0.3,0.3l-0.3,0.6h2.8c1.8,0,2.4,0,2.5,0c0.1,0,0.1,0,0.1,0.1c0,0.1,0,0.5,0,1.9V59z M150.3,56.1h-8.4v1.8h8.4
			V56.1z M150.3,58.7h-8.4v2h8.4V58.7z M153.1,50.5c0,0.8,0,1.5,0,1.9c0,0.6-0.1,0.9-0.4,1.1c-0.3,0.2-0.7,0.3-2,0.3
			c-0.3,0-0.3,0-0.4-0.3c-0.1-0.3-0.2-0.5-0.3-0.7c0.5,0,0.9,0.1,1.2,0.1c0.7,0,0.8-0.2,0.8-0.6v-4.4h-3.7c-1.5,0-1.9,0-2,0
			c-0.1,0-0.1,0-0.1-0.2V47c0-0.1,0-0.1,0.1-0.1c0.1,0,0.5,0,2,0h2.6c1.5,0,2,0,2.1,0c0.1,0,0.1,0,0.1,0.1c0,0.1,0,0.4,0,1.3V50.5z
			 M150.8,51.5c-1.1,0.5-1.9,0.9-2.9,1.4c-0.4,0.2-0.5,0.2-0.7,0.4c-0.1,0.1-0.2,0.1-0.3,0.1c-0.1,0-0.1-0.1-0.2-0.2
			c-0.1-0.3-0.3-0.6-0.4-0.9c0.4-0.1,0.8-0.2,1.4-0.4c0.9-0.3,1.9-0.8,3.4-1.6c0,0.2,0,0.4,0,0.7C151.2,51.4,151.2,51.3,150.8,51.5z
			 M147.3,48.5c0.1-0.1,0.2-0.1,0.3-0.1c0.7,0.3,1.4,0.8,2,1.3c0.1,0.1,0.1,0.1,0,0.3l-0.3,0.4c-0.1,0.2-0.2,0.2-0.3,0.1
			c-0.6-0.6-1.3-1-2-1.4c-0.1-0.1-0.1-0.1,0-0.3L147.3,48.5z"/>
		<path class="st0" d="M172.9,51.4c1,0,1.9,0,2.9-0.1c0.2,0,0.2,0.1,0.2,0.2c0,0.2,0,0.5,0,0.8c0,0.2,0,0.2-0.2,0.2
			c-0.9,0-1.9,0-2.9,0h-0.7c-0.1,2.4-0.4,4.2-1.3,5.7c-0.9,1.5-2.5,2.7-4.4,3.5c-0.3,0.1-0.3,0.1-0.5,0c-0.3-0.3-0.5-0.5-0.9-0.7
			c2.4-0.8,4-1.8,4.8-3.3c0.7-1.3,1.1-2.8,1.1-5.1h-4.6v0.9c0,1,0,2,0.1,2.9c0,0.2-0.1,0.2-0.2,0.2c-0.3,0-0.6,0-0.9,0
			c-0.2,0-0.2,0-0.2-0.2c0-0.9,0.1-1.8,0.1-2.9v-0.9h-0.9c-1,0-2,0-2.8,0.1c-0.2,0-0.2-0.1-0.2-0.3c0-0.3-0.1-0.6-0.1-1
			c0.9,0.1,1.9,0.1,3,0.1h0.9v-1.5c0-0.8,0-1.7-0.2-2.5c0.6,0,1.1,0.1,1.5,0.2c0.3,0.1,0.2,0.3,0.1,0.5c-0.1,0.2-0.1,1-0.1,1.8v1.5
			h4.6l0-1.6c0-1.2,0-2-0.2-2.7c0.5,0.1,1,0.1,1.4,0.2c0.3,0.1,0.3,0.2,0.2,0.5c-0.1,0.2-0.1,0.5-0.1,1.9l0,1.7H172.9z"/>
		<path class="st0" d="M187.4,55.1c-1.6,0-2.3,0.2-2.4,0.2c-0.2,0-0.3-0.1-0.3-0.3c-0.1-0.3-0.1-0.9-0.2-1.4c1.1,0.1,2.5,0.2,4,0.2
			h5.5c1.2,0,2.6,0,3.9-0.1c0.2,0,0.3,0,0.3,0.2c0,0.3,0,0.6,0,0.9c0,0.2-0.1,0.2-0.3,0.2c-1.3,0-2.7,0-3.9,0H187.4z"/>
		<path class="st0" d="M210.7,53.4c1.8-0.5,3.7-1.2,5.2-1.9c0.9-0.5,1.3-0.7,1.7-1.2c0.4,0.3,0.8,0.7,1,1c0.1,0.2,0.1,0.4-0.1,0.5
			c-0.3,0.1-0.8,0.3-1.7,0.7c-1.8,0.8-4.2,1.6-6.2,2.2v3.1c0,1,0.3,1.3,0.9,1.4c0.8,0.2,1.6,0.2,2.7,0.2c1.3,0,3-0.1,4.6-0.4
			c0.2,0,0.2,0,0.3,0.2c0,0.3,0.1,0.6,0.1,0.9c0,0.2-0.1,0.2-0.3,0.3c-1.8,0.3-3,0.3-4.9,0.3c-1.4,0-2.3-0.1-3.2-0.3
			c-1-0.3-1.4-1-1.4-2.2v-6.7c0-1.6,0-2.4-0.2-3.2c0.6,0.1,1.1,0.1,1.5,0.3c0.3,0.1,0.2,0.3,0.1,0.5c-0.2,0.3-0.2,1-0.2,2.2V53.4z
			 M218.4,48c0.1-0.1,0.1-0.1,0.2,0c0.7,0.5,1.5,1.4,2,2.2c0.1,0.1,0,0.1,0,0.2l-0.5,0.4c-0.1,0.1-0.2,0.1-0.2,0
			c-0.5-0.9-1.3-1.7-2.1-2.3L218.4,48z M219.9,46.8c0.1-0.1,0.1-0.1,0.2,0c0.7,0.6,1.5,1.4,2.1,2.1c0.1,0.1,0,0.1-0.1,0.2l-0.5,0.4
			c-0.1,0.1-0.1,0.1-0.2,0c-0.5-0.7-1.2-1.6-2.1-2.3L219.9,46.8z"/>
		<path class="st0" d="M239.2,49.1c0.6,0,0.8,0,1-0.1c0.1-0.1,0.2,0,0.4,0.1c0.3,0.2,0.5,0.5,0.7,0.7c0.1,0.1,0.1,0.3-0.1,0.4
			c-0.2,0.1-0.3,0.4-0.5,0.7c-0.8,1.4-1.7,2.7-2.7,3.9c1.9,1.4,3.5,2.8,5.2,4.5c0.2,0.1,0.2,0.2,0,0.4c-0.2,0.2-0.4,0.5-0.6,0.6
			c-0.1,0.1-0.2,0.1-0.3,0c-1.5-1.7-3.2-3.3-5-4.6c-2.1,2.1-4.2,3.8-6.4,5c-0.2,0.1-0.3,0.1-0.5,0c-0.2-0.3-0.6-0.5-0.9-0.6
			c2.7-1.4,4.8-3,6.6-4.9c1.2-1.2,2.4-2.8,3.4-4.8h-5.4c-1,0-1.8,0.1-2.6,0.1c-0.2,0-0.2-0.1-0.2-0.2c-0.1-0.3-0.1-0.8-0.1-1.2
			c0.9,0.1,1.7,0.1,2.8,0.1H239.2z"/>
	</g>
	<line class="st1" x1="0.9" y1="36.3" x2="243.9" y2="36.3"/>
</g>
</svg>
