<svg version="1.1" id="レイヤー_1" xmlns="http://www.w3.org/2000/svg" x="0" y="0" viewBox="0 0 245 65" xml:space="preserve"><style>.st0{fill:#24387c}</style><path class="st0" d="M16.5 6.9c2.3-.1 4.3 1.5 3.2 3.6-3.6 6.9-7.8 13-16.1 16.3-2.5 1-3.8-1.9-1.3-2.8 6.6-2.3 11.6-8.2 13.7-13.3.2-.6 0-1.1-.7-1.1-1.2 0-3.4.2-4.8.4-2 2.7-4.6 5.8-6.7 7.2-2.1 1.4-3.8-1.3-1.7-2.5 2.5-1.5 6.2-6.5 6.5-6.9.3-.4.8-.7 1.3-.7.7 0 5.4-.1 6.6-.2zm2.3-1.3c-1.5-.6-.3-2.4 1-1.9 1.1.4 2.1 1 2.9 1.8 1.2 1.3-.6 3.1-1.6 1.9-.6-.8-1.4-1.4-2.3-1.8zM21.5 3c-1.5-.6-.4-2.4 1-1.9 1.1.4 2.1 1 3 1.7 1.2 1.2-.5 3-1.5 1.9-.8-.7-1.6-1.2-2.5-1.7zm35.6 13.1c-.8 0-1.4-.5-1.4-1.3v-.1c0-.8.5-1.5 1.3-1.5h17c.8.1 1.4.8 1.4 1.6-.1.7-.6 1.3-1.4 1.4l-16.9-.1zm27 4c-.1 1.5.6 2.2 2.4 2.4 1.8.2 6.6-.1 8.7-.8 2.3-.8 3.6 2.4.6 3.2-2.7.7-7.2.8-10.4.4-2.6-.3-4.2-2-4.2-4.5 0-3 .2-9.6.2-13.2 0-2.1 3.1-1.7 3 .1 0 1.6-.1 3.8-.1 6.1 3.2-.7 6.3-1.6 9.4-2.8 2.2-1 3.7 2.1 1.1 3-2.8 1-7.2 2.3-10.6 2.7 0 1.4 0 2.6-.1 3.4zM94.9 8.9c-1.5-.6-.3-2.4 1-1.9 1.1.4 2.1 1 3 1.8 1.2 1.3-.6 3.1-1.6 1.9-.7-.7-1.5-1.3-2.4-1.8zm2.7-2.6c-1.5-.6-.4-2.4 1-1.9 1.1.4 2.1 1 3 1.7 1.2 1.2-.5 3.1-1.5 1.9-.8-.7-1.6-1.2-2.5-1.7zm12.6 19.1c-2.2.8-3.2-2.1-1-2.9 5.4-1.9 10.1-6.6 12.5-11.1.3-.5.1-1-.5-1-1.9 0-6 .1-8.6.2-1.8.1-1.9-2.8 0-2.9 2.2-.1 6.6-.1 9.6-.1 2.7 0 4.2 1.7 3 3.7-1 1.8-2.1 3.5-3.3 5.1 2.5 1.5 6.3 4 7.6 5.9 1.2 1.7-1 4-2.4 2.2-2-2.3-4.4-4.4-7-6-2.6 3.1-6 5.5-9.9 6.9zm40.8-5.9c.1.4.1.8.1 1.2 0 2.4-1.1 6.1-5.8 6.1-2.1 0-3.2-.6-3.2-1.6 0-.7.5-1.2 1.2-1.3.1 0 .3 0 .4.1.6.2 1.2.3 1.8.3 3 0 3-3.6 3-3.8 0-.3 0-.6-.1-.9l-11.4.1c-.6 0-1.2-.4-1.2-1.1v-.1c0-.7.5-1.2 1.1-1.2h.1l9.9.1c-.3-.2-.7-.4-1.1-.6-.6-.2-.8-.5-.8-.9.1-.7.7-1.2 1.4-1.1.6 0 1.1.2 1.6.5.7-.5 2.1-1.4 2.1-1.8 0-.1-.1-.2-.3-.2h-1.4c-1.7 0-4.3.1-6.2.1h-.1c-.6 0-1.2-.4-1.2-1v-.1c0-.6.6-1.1 1.2-1.1 1.2-.1 2.6-.1 4-.1 2 0 3.9 0 5.2.1 1.5 0 2.2.8 2.2 1.6 0 1.3-1.4 2.4-3.8 3.9.1.2.3.4.4.6l8-.1c.6 0 1.2.5 1.2 1.2v.1c0 .6-.4 1.1-1.1 1.2h-.1l-7.1-.2zm4.4-8.5c0-1.1-.6-1.3-1.7-1.3-2.1 0-4.6-.1-6.9-.1-1.9 0-3.8 0-5.4.1-1.5 0-1.7.4-1.8 1.3v1.6c0 .7-.6 1.2-1.3 1.2-.7 0-1.2-.5-1.3-1.2v-2.5c.1-1.3 1-2.5 3.1-2.6h2.3c-.1-.1-.3-.2-.3-.4-.6-1-1.2-1.3-1.9-1.9-.2-.2-.3-.4-.3-.7.1-.7.7-1.2 1.4-1.2 1 0 3.1 2 3.1 3 0 .5-.3 1-.8 1.2h7.1c.8-1.1 1.5-2.3 1.9-3.5.2-.5.7-.9 1.2-.9.8 0 1.4.5 1.5 1.3 0 .5-.9 1.8-2 3.1h1.9c1.6 0 3.1.9 3.1 2.5v2.4c-.1.7-.7 1.2-1.4 1.2s-1.3-.4-1.3-1.1l-.2-1.5zm-7.6-3.7c-.4 0-.8-.3-.9-.6-.4-.9-.9-1.6-1.6-2.3-.1-.2-.2-.4-.2-.6 0-.6.7-1 1.4-1 1.4 0 2.9 2.6 2.9 3.2-.1.7-.8 1.3-1.6 1.3zm17.6 12.2c-.2-4.8 2.4-8.4 3.4-10.2.1-.2.2-.4 0-.3-.7.1-1.3.2-2 .2-2.1.1-2-2.8.1-2.8 2.1.1 3.9-.3 5.1-1 1.7-1 3.1 1.5 1.2 2.5-1.9 1-5.9 6.3-5.3 11.6.5 4.1 4.1 4.4 6.9 1.8 3.4-3.2 3.3-9.3 2.5-11-.2-.3-.4-1-.7-1.4-1.1-1.9 1.6-3.3 2.7-1.1 1 2 2.4 3.5 5.2 5 1.9 1 .2 3.6-1.6 2.5-1.1-.7-2.1-1.6-2.9-2.7-.2-.2-.2-.3-.2 0 .6 2.4 0 7.5-3.5 10.9-3.7 3.8-10.5 3.3-10.9-4zm15-12.6c-1.4-.6-.3-2.2 1-1.7 1 .4 1.9.9 2.7 1.6 1 1.1-.5 2.8-1.4 1.7-.8-.6-1.5-1.1-2.3-1.6zm2.4-2.3c-1.4-.5-.4-2.1.9-1.7 1 .3 1.9.9 2.7 1.5 1.1 1.1-.5 2.8-1.4 1.7-.7-.6-1.4-1.1-2.2-1.5zm29.9 6.1c-.3 3.3-1.3 6.5-2.9 9.4 1.4 1.6 3.1 2.8 5 3.6.5.2.8.6.8 1.2 0 .8-.6 1.5-1.4 1.5-.9 0-3.9-1.9-5.8-4.3-2.1 2.5-5.4 4.5-6.4 4.5-.7 0-1.3-.6-1.3-1.4 0-.5.3-1 .8-1.1 2.2-.8 4.1-2.2 5.5-4-1.2-1.9-2-4-2.5-6.3-.3.4-.7.6-1.2.6-.4 0-.7-.1-1-.4v.4c-.2 6-.6 11.3-4.5 11.3-.5 0-2.4-.1-2.4-1.6-.1-.6.4-1.1.9-1.2h.1c.2 0 .3 0 .5.1s.5.2.8.2c.6 0 1.1-.4 1.3-1.2.7-2.2.9-4.9.9-7.2 0-.8-.4-.9-1.5-.9h-.9c-.5 4.4-1.4 8.8-3.8 11.7-.3.3-.6.5-1 .5-.7 0-1.3-.5-1.4-1.2 0-.2.1-.5.3-.7 3-3.7 3.6-9.8 3.8-15.1l-2.1.1c-.7 0-1.2-.5-1.2-1.2s.5-1.2 1.2-1.2l3 .1v-3c0-.7.7-1.3 1.4-1.3s1.2.6 1.2 1.3v3l3.2-.1c.6 0 1.1.5 1.2 1.1V8c0 .6-.4 1.2-1 1.2h-.1l-4.2-.1c-.1.9-.1 1.7-.2 2.7h1.7c1.3 0 2.2.1 2.6 1.2.1-.2.1-.3.2-.5 1.6-2.3 2.9-6.1 3.3-8.6.1-.6.6-1 1.2-1 .7-.1 1.3.5 1.3 1.1 0 1-1 3.8-1.2 4.2h7.3c.6 0 1.1.4 1.1 1v.1c0 .6-.4 1.1-1 1.1h-1.6zm-7.1 0c.2 2.6 1 5.1 2.2 7.3 1.1-2.3 1.8-4.7 2-7.3h-4.2zm22.4 8.9v3.3c1.1.4 2.6 1 6.8 1 2.7 0 5.6-.2 8.1-.4h.1c.6 0 1.2.5 1.2 1.2v.1c0 .7-.6 1.3-1.3 1.3-1.9.2-4 .3-6 .3-5.7 0-10.5-.5-13.1-4.1-.9 3.5-1.7 4.2-2.6 4.2-.6 0-1.3-.4-1.3-1 0-.2.1-.5.2-.6 1.3-1.8 2-4.5 2-7v-.4c0-.6.5-1 1-1h.1c.6 0 1.1.4 1.2 1 0 .5-.1 1.7-.2 1.9.3.8.8 1.6 1.5 2.2v-5.9h-3.9c-.6 0-1.1-.4-1.1-.9 0-.6.4-1.1.9-1.1h9.7c.6 0 1 .5.9 1.1 0 .5-.4.9-.9.9H228v1.9h2.6c.6 0 1 .5.9 1.1 0 .5-.4.9-.9.9H228zm1.1-7.2c-.8.1-1.7.1-2.5.1-4 0-4.9-.1-4.9-3.4 0-1 .1-1.9.1-2.8 0-1.3 1.1-2.4 2.4-2.4.8 0 1.6-.1 2.4-.1.8 0 1.6 0 2.4.1 1.2.1 2.2 1 2.4 2.2.1.9.1 1.8.1 2.7v1.3c-.1 1.4-1 2.2-2.4 2.3zm.2-3.3h-5.5v.6c0 .7.4.9 2.7.9 2.4 0 2.8-.1 2.8-1v-.5zm-.1-2.2c-.1-1.1-.3-1.1-2.6-1.1-2.5 0-2.7.1-2.8 1.1v.3h5.4v-.3zm9.6-.5c-.1.5-.3 1-.4 1.3 2.4 0 3.8.2 3.9 2 .1 1.1.1 2.3.1 3.5 0 1.2 0 2.4-.1 3.4s-1 2-2.5 2.1c1 .7 2.1 1.2 3.3 1.6.5.1.9.6.9 1.1 0 .7-.5 1.2-1.2 1.3-1.1 0-3.4-1.6-4.4-2.3-.2-.2-.4-.5-.4-.7 0-.4.2-.7.5-1h-2.2c.3.2.4.5.4.8 0 1.3-4.4 3.5-5.5 3.5-.6 0-1.2-.5-1.2-1.1 0-.6.4-1.1 1-1.2 1.4-.4 2.8-1.1 3.9-2.1-1.2-.2-1.8-1-1.9-2 0-1-.1-2.2-.1-3.3 0-1.2 0-2.4.1-3.5 0-1 .7-1.9 2.6-2h.3c.1-.5.2-.8.3-1.4h-3.1c-.6.1-1.1-.4-1.2-1v-.1c0-.6.5-1 1-1.1h9.5c.6-.1 1.1.3 1.2.9v.1c0 .6-.5 1.1-1.1 1.1h-.1l-3.6.1zm1.3 6h-4.8v1.5h4.8v-1.5zm0-2.2c0-.8-.4-.9-2.3-.9s-2.3.1-2.4.9v.6h4.7v-.6zm-4.7 5.3v.7c0 .5.1.9 2.3.9 1.7 0 2.3 0 2.3-.9v-.7h-4.6zm-192.1.7L39.5 19v-5.7z"/><path class="st0" d="M45.2 24.2c-3.7.1-5.8.1-8.6 0-3-.1-4.6-1.7-4.6-4.2-.1-2.9-.1-5.1 0-7.7.1-2.2 1.4-4 4.6-4.1 3.3-.1 6.1-.1 9 0 2.5.1 4.2 1.9 4.2 3.8.1 2.7.1 5.4 0 7.9-.2 2.7-1.8 4.2-4.6 4.3zm1.4-11.1c-.1-1.3-.7-2-2.2-2.1-2.6-.1-4.9-.1-7.2 0-1.7.1-2.2.9-2.2 2.1-.1 2.1-.1 4.2 0 6.3.1 1.3.7 1.9 2.3 1.9 2.7.1 4.5.1 7.2 0 1.3-.1 2.1-.7 2.1-2v-6.2zM10.5 60.5c1 .2 2.4.2 4.1.2.9 0 1.9 0 3-.1-.1.3-.2.5-.3.8-.1.4-.1.4-.4.4h-1.7c-7.1 0-8.3-1.2-9.5-3.5-.6 1.5-1.5 2.6-2.6 3.6-.1.1-.2.2-.3.2-.1 0-.1-.1-.3-.2-.2-.2-.4-.4-.6-.5 1.9-1.4 3.2-3.3 3.5-6.3.1-.4.1-.7.1-1 .4.1.7.1 1 .2.2.1.3.1.3.2s-.1.2-.1.3c-.1.1-.1.3-.2.4-.1.7-.2 1.3-.4 1.8.7 1.6 1.4 2.6 3.3 3.1v-7.6H5c-.1 0-.2 0-.2-.1v-.8c0-.1 0-.1.2-.1h10c.1 0 .1 0 .1.1v.8c0 .1 0 .1-.1.1h-4.5v3H15c.1 0 .1 0 .1.1v.8c0 .1 0 .1-.1.1h-4.5v4zm6.7-10.6v1.9c0 .1 0 .1-.1.1h-.8c-.1 0-.1 0-.1-.1v-2.5H3.9v2.5c0 .1 0 .1-.1.1h-.9c-.1 0-.1 0-.1-.1v-3.5c0-.2 0-.1.1-.1h6.4v-.3c0-.9 0-1.4-.1-1.8.5 0 .8 0 1.2.1.1 0 .2.1.2.1 0 .1-.1.2-.1.3-.1.2-.1.4-.1 1.3v.3h6.8c.1 0 .1 0 .1.1v1.6zm12.9 1c.2 0 .2 0 .3-.1h.2c.1 0 .2.1.5.3.2.2.3.3.3.4 0 .1-.1.1-.1.2l-.4.4c-.5.8-.9 1.5-1.5 2.1 1 .7 2.1 1.3 3.3 1.6-.2.2-.3.4-.4.6-.1.3-.2.3-.5.2-1.2-.5-2.2-1.1-3-1.8-.6.5-1.2 1-2.1 1.5H31c.1 0 .1 0 .1.1V61c0 .1 0 .1-.1.1h-.7c-.1 0-.1 0-.1-.1v-.4h-3.1v1c0 .1 0 .2-.1.2h-.7c-.1 0-.1 0-.1-.2v-5c-.3.2-.6.3-1 .5-.1.1-.2.1-.3.1-.1 0-.1-.1-.2-.3-.1-.2-.2-.4-.4-.5 1.7-.7 3-1.4 3.9-2.3-.5-.5-.9-1-1.3-1.7-.4.5-.8.9-1.3 1.3-.1.1-.2.2-.3.2-.1 0-.1-.1-.2-.2-.1-.2-.3-.4-.5-.5 1.4-1 2.3-2.2 2.7-3.1.1-.3.2-.5.3-.8.4.1.7.2.9.3.1 0 .2.1.2.2s-.1.1-.1.2c-.1.1-.2.3-.3.4l-.3.5h2.1zm2.1-1.5v1.4c0 .1 0 .1-.2.1h-.7c-.1 0-.1 0-.1-.1v-1.7H26v1.7c0 .1 0 .1-.1.1h-.7c-.2.1-.2.1-.2-.1v-2.5c0-.1 0-.1.1-.1H28v-.5c0-.7 0-1.1-.1-1.6.4 0 .8.1 1.1.1.1 0 .2.1.2.2s-.1.2-.1.3c-.1.2-.1.4-.1 1v.5h3.1c.1 0 .2 0 .2.1v1.1zm-2 7.9h-3.1V60h3.1v-2.7zm-2.7-5.6l-.2.2c.4.7.9 1.3 1.4 1.8.6-.6 1-1.3 1.4-2h-2.6zm7.8 8.5c-.1.1-.3.2-.4.3-.9.7-1.8 1.4-3.1 1.9-.1.1-.2.1-.3.1-.1 0-.1-.1-.3-.3s-.3-.4-.5-.5c1.4-.5 2.3-1 3.2-1.8.2-.1.4-.4.5-.6.3.2.6.3.8.5.1.1.1.1.1.2s.1.2 0 .2zm5.4-12.3c0 .1 0 .1-.1.1h-3.7c-.2.7-.5 1.3-.7 1.8h3.4c.1 0 .1 0 .1.1v8.8c0 .1 0 .1-.1.1h-6.2c-.1 0-.1 0-.1-.1v-8.8c0-.1 0-.1.1-.1h1.7c.3-.6.5-1.2.7-1.8h-3.1c-.1 0-.1 0-.1-.1v-.7c0-.1 0-.1.1-.1h7.9c.1 0 .1 0 .1.1v.7zm-2.1 2.8h-4.4v1.8h4.4v-1.8zm0 2.7h-4.4v1.8h4.4v-1.8zm0 2.6h-4.4v2h4.4v-2zm-1.1 3.4c.1-.1.2-.1.3 0 1 .9 2.2 1.7 3.2 2-.2.1-.3.3-.5.6-.1.2-.1.3-.2.3s-.2 0-.3-.1c-1.2-.6-2.1-1.3-3-2.1-.1-.1-.1-.1.1-.3l.4-.4zM56.8 53c0 .1 0 .2-.1.2h-3.9v1.9h3.3c.1 0 .1 0 .1.1v4.4c0 .5-.1.8-.4 1.1-.3.2-.6.3-1.5.3-.3 0-.3 0-.4-.3-.1-.3-.2-.5-.3-.7.4 0 .6.1 1 .1s.5-.1.5-.5V56h-2.4v6.2c0 .1 0 .1-.1.1h-.8c-.1 0-.1 0-.1-.1V56h-2.4v4.8c0 .1 0 .1-.1.1h-.8c-.1 0-.1 0-.1-.1v-5.6c0-.1 0-.1.1-.1h3.3v-1.9h-4.2c-.1 0-.1 0-.1-.2v-.7c0-.1 0-.1.1-.1h4.2V50h-2.2c-.2.5-.5 1-.8 1.5-.1.2-.1.2-.2.2s-.1-.1-.2-.1c-.2-.1-.5-.3-.6-.3.9-1.1 1.4-2.4 1.7-3.5 0-.2.1-.4.1-.7.4.1.7.2 1 .3.2.1.2.1.2.2s-.1.1-.1.2c-.1.1-.1.2-.2.4l-.3.9h1.8v-1c0-.7 0-1.1-.1-1.6.5 0 .8.1 1.2.1.1 0 .2.1.2.1 0 .1 0 .2-.1.3-.1.2-.1.5-.1 1v1h3.1c.1 0 .1 0 .1.1v.7c0 .1 0 .1-.1.1H53V52h3.9c.1 0 .1 0 .1.1v.9zm1.1-2.6c0-1.2 0-1.8-.1-2.4.4 0 .8.1 1.2.1.1 0 .2.1.2.1 0 .1-.1.2-.1.3-.1.2-.1.5-.1 1.9v7.2c0 .1 0 .1-.1.1H58c-.1 0-.1 0-.1-.1v-7.2zm3.5-1.6c0-1.1 0-1.6-.1-2.2.4 0 .8.1 1.2.1.1 0 .2.1.2.1 0 .1-.1.2-.1.3-.1.2-.1.5-.1 1.6v11.5c0 .8-.1 1.2-.5 1.5-.4.3-.8.3-2.4.3-.3 0-.3 0-.4-.4-.1-.3-.2-.6-.4-.8.6.1 1 .1 1.6.1.7 0 .9-.1.9-.9V48.8zm17.3 1.6c0 .1 0 .1-.1.1H75v1.2h3.1c.1 0 .1 0 .1.1v4.7c0 .1 0 .1-.1.1H75v1.2h3.2c.1 0 .1 0 .1.1v.6c0 .1 0 .1-.1.1H75v1.3c1.1-.1 2.3-.3 3.3-.5-.1.2-.1.4-.1.5 0 .4 0 .4-.4.4-2.1.4-4.2.7-6.4 1-.4 0-.6.1-.7.1-.1 0-.1.1-.2.1s-.2-.1-.2-.2c-.1-.3-.2-.7-.3-1 .6 0 1.1 0 1.9-.1.6-.1 1.4-.1 2.2-.2v-1.4h-3.5c-.1 0-.1 0-.1-.1v-.6c0-.1 0-.1.1-.1H74v-1.2h-3c-.1 0-.1 0-.1-.1v-4.7c0-.1 0-.1.1-.1h3v-1.2h-3.8c-.1 0-.1 0-.1-.1v-.7c0-.1 0-.1.1-.1H74v-1.2c-.9.1-1.8.2-2.8.3-.3 0-.4 0-.5-.2-.1-.3-.3-.5-.4-.6 2.6-.2 4.4-.5 6.2-.9.3-.1.6-.2.8-.3.3.2.5.4.7.6.1.1.1.2.1.3 0 .1-.1.2-.3.2s-.4.1-.7.1c-.8.2-1.5.4-2.3.5v1.4h3.6c.1 0 .1 0 .1.1v.5zm-4.7 2h-2.2v1.3H74v-1.3zm0 2h-2.2v1.4H74v-1.4zm3.3-2H75v1.3h2.3v-1.3zm0 2H75v1.4h2.3v-1.4zm6-3.9h2c.1 0 .2 0 .2.2v1.6c0 2.9-.2 5.8-.5 8-.2 1.3-.8 1.8-1.9 1.8h-1.3c-.3 0-.3-.1-.3-.3 0-.3-.1-.6-.3-.9.6.1 1.2.2 1.8.2.6 0 .9-.3 1-1.2.3-1.9.5-5 .5-8.3h-2.2c-.1 1.8-.3 3.6-.6 5-.6 2.3-1.5 4.1-3.4 5.6-.1.1-.2.2-.3.2-.1 0-.1-.1-.2-.2-.2-.2-.5-.4-.7-.5 2-1.3 3-3.1 3.7-5.5.3-1.2.5-2.9.6-4.7h-2.3c-.1 0-.2 0-.2-.1v-.8c0-.1 0-.1.2-.1h2.1v-2c0-1.1 0-1.5-.1-2.2.4 0 .8.1 1.2.1.1 0 .2.1.2.2s0 .2-.1.4-.1.7-.1 1.7v1.9h1zm25.1-2.5c0 .1 0 .1-.1.1h-7.2v2.4h3.7c.1 0 .1 0 .1.1v7.9c0 .1 0 .1-.1.1h-8.3c-.1 0-.1 0-.1-.1v-7.9c0-.1 0-.1.1-.1h3.6v-2.4h-7c-.1 0-.1 0-.1-.1v-.8c0-.1 0-.2.1-.2h15.2c.1 0 .1 0 .1.2v.8zm-1.5 4.6c0-.9 0-1.6-.1-2.2.6 0 .9.1 1.2.1.1 0 .2.1.2.2s0 .2-.1.3c-.1.1-.1.5-.1 1.6v9.7c0 .1 0 .1-.1.1h-.9c-.1 0-.1 0-.1-.1v-.9H94.5v.9c0 .1 0 .1-.1.1h-.8c-.1 0-.1 0-.1-.1v-9.6c0-1 0-1.7-.1-2.2.5 0 .7.1 1.1.1.2 0 .3.1.3.2s-.1.2-.1.3c-.1.2-.1.6-.1 1.6v7.7H107v-7.8zm-6.8-1.2h-2.7V54h2.7v-2.6zm0 3.4h-2.7v2.8h2.7v-2.8zm3.8-3.4h-2.8V54h2.8v-2.6zm0 3.4h-2.8v2.8h2.8v-2.8zm27.3 2.4c0 .1 0 .1-.1.1H124v3.4c0 .6-.1.9-.5 1.2-.4.2-.8.3-2.5.3-.3 0-.3 0-.4-.3-.1-.3-.2-.6-.4-.8.6.1 1.1.1 1.9.1.5 0 .8-.1.8-.7v-3.1h-7.2c-.1 0-.1 0-.1-.1v-.8c0-.1 0-.1.1-.1h7.2c0-.8 0-1.3-.1-1.8.3.1.6.1.9.2.9-.5 1.6-1 2.3-1.7h-7.1c-.1 0-.1 0-.1-.1v-.7c0-.1 0-.1.1-.1h8c.1 0 .2.1.5.4.3.3.4.4.4.6 0 .1-.1.2-.2.2-.2.1-.3.1-.8.5-.7.6-1.6 1.2-2.8 1.8v.8h7.1c.1 0 .1 0 .1.1v.6zm-.6-6v1.9c0 .1 0 .1-.2.1h-.8c-.1 0-.1 0-.1-.1v-2.7h-12.4v2.7c0 .1 0 .1-.1.1h-.8c-.1 0-.1 0-.1-.1v-3.5c0-.1 0-.1.1-.1h10c.5-.8.8-1.4 1.2-2.2.1-.2.2-.5.2-.8.4.1.8.2 1.1.4.1.1.2.1.2.2s0 .1-.1.2-.3.3-.3.4c-.3.6-.6 1.2-1.1 1.8h3.3c.1 0 .2 0 .2.1v1.6zm-12.1-4.6c.2-.1.3-.1.3 0 .5.6 1 1.3 1.4 2 .1.1.1.1-.2.2l-.5.2c-.1.1-.2.1-.2.1-.1 0-.1 0-.1-.1-.3-.7-.8-1.5-1.3-2-.1-.1-.1-.1.2-.2l.4-.2zm4.3-.3c.2-.1.2-.1.3 0 .5.7.8 1.4 1.1 2.1.1.1 0 .1-.2.2l-.5.2c-.3.1-.3.1-.3-.1-.3-.9-.6-1.5-1-2.1-.1-.1 0-.2.2-.2l.4-.1zm20.2 5.4c-1 .5-2.2 1.1-3.2 1.5-.4.2-.5.3-.6.4-.1.1-.1.1-.2.1s-.1 0-.2-.1c-.2-.3-.3-.7-.4-1 .5-.1.9-.2 1.3-.4 1-.4 2.3-1 3.7-1.7v.7c-.1.3-.1.3-.4.5zm2.3-1.2v1.9c0 .6-.1.9-.4 1.1-.3.2-.6.3-2 .3-.3 0-.3 0-.4-.4-.1-.3-.2-.5-.3-.7.5.1.8.1 1.2.1.7 0 .8-.2.8-.6v-4.4h-5.7c-.1 0-.1 0-.1-.2V47c0-.1 0-.1.1-.1h6.7c.1 0 .1 0 .1.1v3.5zm-5.6-2c.1-.1.1-.1.3-.1.7.3 1.4.7 2.1 1.2.1.1.1.1 0 .3l-.3.4c-.2.2-.2.2-.3.1-.6-.5-1.3-1-2-1.3-.1-.1-.1-.1.1-.3l.1-.3zM151.4 59v3.3c0 .1 0 .1-.1.1h-.8c-.1 0-.1 0-.1-.1v-.6H142v.7c0 .1 0 .1-.1.1h-.8c-.1 0-.1 0-.1-.1v-7.1c0-.1 0-.1.1-.1h3.9l.3-.6c.1-.4.2-.6.3-1 .4.1.8.1 1.1.3.1.1.2.1.2.2s-.1.2-.1.3l-.3.3-.3.6h5.3c.1 0 .1 0 .1.1V59zm-1.1-2.9h-8.4v1.8h8.4v-1.8zm0 2.6h-8.4v2h8.4v-2zm2.8-8.2v1.9c0 .6-.1.9-.4 1.1-.3.2-.7.3-2 .3-.3 0-.3 0-.4-.3-.1-.3-.2-.5-.3-.7.5 0 .9.1 1.2.1.7 0 .8-.2.8-.6v-4.4h-5.7c-.1 0-.1 0-.1-.2V47c0-.1 0-.1.1-.1h6.7c.1 0 .1 0 .1.1v3.5zm-2.3 1c-1.1.5-1.9.9-2.9 1.4-.4.2-.5.2-.7.4-.1.1-.2.1-.3.1-.1 0-.1-.1-.2-.2-.1-.3-.3-.6-.4-.9.4-.1.8-.2 1.4-.4.9-.3 1.9-.8 3.4-1.6v.7c.1.4.1.3-.3.5zm-3.5-3c.1-.1.2-.1.3-.1.7.3 1.4.8 2 1.3.1.1.1.1 0 .3l-.3.4c-.1.2-.2.2-.3.1-.6-.6-1.3-1-2-1.4-.1-.1-.1-.1 0-.3l.3-.3zm25.6 2.9c1 0 1.9 0 2.9-.1.2 0 .2.1.2.2v.8c0 .2 0 .2-.2.2h-3.6c-.1 2.4-.4 4.2-1.3 5.7s-2.5 2.7-4.4 3.5c-.3.1-.3.1-.5 0-.3-.3-.5-.5-.9-.7 2.4-.8 4-1.8 4.8-3.3.7-1.3 1.1-2.8 1.1-5.1h-4.6v.9c0 1 0 2 .1 2.9 0 .2-.1.2-.2.2h-.9c-.2 0-.2 0-.2-.2 0-.9.1-1.8.1-2.9v-.9h-.9c-1 0-2 0-2.8.1-.2 0-.2-.1-.2-.3 0-.3-.1-.6-.1-1 .9.1 1.9.1 3 .1h.9V50c0-.8 0-1.7-.2-2.5.6 0 1.1.1 1.5.2.3.1.2.3.1.5s-.1 1-.1 1.8v1.5h4.6v-1.6c0-1.2 0-2-.2-2.7.5.1 1 .1 1.4.2.3.1.3.2.2.5-.1.2-.1.5-.1 1.9v1.7h.5zm14.5 3.7c-1.6 0-2.3.2-2.4.2-.2 0-.3-.1-.3-.3-.1-.3-.1-.9-.2-1.4 1.1.1 2.5.2 4 .2h5.5c1.2 0 2.6 0 3.9-.1.2 0 .3 0 .3.2v.9c0 .2-.1.2-.3.2h-10.5zm23.3-1.7c1.8-.5 3.7-1.2 5.2-1.9.9-.5 1.3-.7 1.7-1.2.4.3.8.7 1 1 .1.2.1.4-.1.5-.3.1-.8.3-1.7.7-1.8.8-4.2 1.6-6.2 2.2v3.1c0 1 .3 1.3.9 1.4.8.2 1.6.2 2.7.2 1.3 0 3-.1 4.6-.4.2 0 .2 0 .3.2 0 .3.1.6.1.9 0 .2-.1.2-.3.3-1.8.3-3 .3-4.9.3-1.4 0-2.3-.1-3.2-.3-1-.3-1.4-1-1.4-2.2v-6.7c0-1.6 0-2.4-.2-3.2.6.1 1.1.1 1.5.3.3.1.2.3.1.5-.2.3-.2 1-.2 2.2v2.1zm7.7-5.4c.1-.1.1-.1.2 0 .7.5 1.5 1.4 2 2.2.1.1 0 .1 0 .2l-.5.4c-.1.1-.2.1-.2 0-.5-.9-1.3-1.7-2.1-2.3l.6-.5zm1.5-1.2c.1-.1.1-.1.2 0 .7.6 1.5 1.4 2.1 2.1.1.1 0 .1-.1.2l-.5.4c-.1.1-.1.1-.2 0-.5-.7-1.2-1.6-2.1-2.3l.6-.4zm19.3 2.3c.6 0 .8 0 1-.1.1-.1.2 0 .4.1.3.2.5.5.7.7.1.1.1.3-.1.4-.2.1-.3.4-.5.7-.8 1.4-1.7 2.7-2.7 3.9 1.9 1.4 3.5 2.8 5.2 4.5.2.1.2.2 0 .4s-.4.5-.6.6c-.1.1-.2.1-.3 0-1.5-1.7-3.2-3.3-5-4.6-2.1 2.1-4.2 3.8-6.4 5-.2.1-.3.1-.5 0-.2-.3-.6-.5-.9-.6 2.7-1.4 4.8-3 6.6-4.9 1.2-1.2 2.4-2.8 3.4-4.8h-5.4c-1 0-1.8.1-2.6.1-.2 0-.2-.1-.2-.2-.1-.3-.1-.8-.1-1.2.9.1 1.7.1 2.8.1h5.2z"/><path fill="none" stroke="#24387c" stroke-width=".9" stroke-miterlimit="10" d="M.9 36.3h243"/></svg>